# xmcd
#
# Track frame offsets:
#	150
#	10087
#	21177
#	32057
#	42507
#	54345
#	65095
#	75310
#	84500
#	94617
#	105295
#	116315
#	126520
#	138330
#	149580
#	159130
#	170587
#	178992
#	192052
#	202390
#	211737
#	223095
#	233240
#	243992
#	254910
#	265787
#	275560
#	288232
#	300185
#	311055
#	320712
#	329222
#
# Disc length: 4559 seconds
#
# Revision: 1
# Processed by: cddbd v1.5.2PL0 Copyright (c) Steve Scherf et al.
# Submitted via: audiograbber 1.83.01
#
DISCID=da11cd20
DTITLE=Fats Domino - The Paramount Tapes - CD 1/2
DYEAR=1999
DGENRE=R&B
TTITLE0=When I'm walking (let me walk)
TTITLE1=I got a right to cry
TTITLE2=There goes my heart again
TTITLE3=Just a lonely man
TTITLE4=Red sails in the sunset
TTITLE5=Bye baby, bye bye
TTITLE6=Forever, forever
TTITLE7=I'm linvin' right
TTITLE8=Can't go on without you
TTITLE9=Land of 1000 dances
TTITLE10=Song for Rosemary
TTITLE11=Tell me the truth, baby
TTITLE12=I don't want to set the world on fire
TTITLE13=You know I miss you (version two)
TTITLE14=Fat's on fire
TTITLE15=The land of make believe
TTITLE16=Old man trouble
TTITLE17=Love me
TTITLE18=Mary, oh Mary
TTITLE19=Gotta get a job
TTITLE20=The fat man (Version 2)
TTITLE21=Valley of tears (Version 2)
TTITLE22=Fats' shuffle
TTITLE23=I'm a fool to care
TTITLE24=When my dreamboat comes home (Version 2)
TTITLE25=Wigs
TTITLE26=Trouble in mind (Version 2)
TTITLE27=Man thats's all (another mule version 1)
TTITLE28=Kansas City
TTITLE29=Reelin' and rockin'
TTITLE30=Slowboat to China
TTITLE31=Monkey business
EXTD=Repertoire Records
EXTT0=
EXTT1=
EXTT2=
EXTT3=
EXTT4=
EXTT5=
EXTT6=
EXTT7=
EXTT8=
EXTT9=
EXTT10=
EXTT11=
EXTT12=
EXTT13=
EXTT14=
EXTT15=
EXTT16=
EXTT17=
EXTT18=
EXTT19=
EXTT20=
EXTT21=
EXTT22=
EXTT23=
EXTT24=
EXTT25=
EXTT26=
EXTT27=
EXTT28=
EXTT29=
EXTT30=
EXTT31=
PLAYORDER=
